<mxfile host="Electron" modified="2023-06-07T06:19:30.608Z" agent="Mozilla/5.0 (Windows NT 10.0; Win64; x64) AppleWebKit/537.36 (KHTML, like Gecko) draw.io/21.2.8 Chrome/112.0.5615.165 Electron/24.2.0 Safari/537.36" etag="gg7nBSwNP5VbBH_W5yBT" version="21.2.8" type="device">
  <diagram name="第 1 页" id="TiUcTzkpdyk3yZOjxuos">
    <mxGraphModel dx="1382" dy="683" grid="1" gridSize="10" guides="1" tooltips="1" connect="1" arrows="1" fold="1" page="1" pageScale="1" pageWidth="1169" pageHeight="827" math="0" shadow="0">
      <root>
        <mxCell id="0" />
        <mxCell id="1" parent="0" />
        <mxCell id="RtNfpjcmU_7wbHO0GgrP-10" style="edgeStyle=orthogonalEdgeStyle;rounded=0;orthogonalLoop=1;jettySize=auto;html=1;entryX=0.5;entryY=0;entryDx=0;entryDy=0;" parent="1" source="RtNfpjcmU_7wbHO0GgrP-2" target="RtNfpjcmU_7wbHO0GgrP-3" edge="1">
          <mxGeometry relative="1" as="geometry" />
        </mxCell>
        <mxCell id="RtNfpjcmU_7wbHO0GgrP-2" value="接入层" style="rounded=1;whiteSpace=wrap;html=1;" parent="1" vertex="1">
          <mxGeometry x="330" y="330" width="110" height="40" as="geometry" />
        </mxCell>
        <mxCell id="RtNfpjcmU_7wbHO0GgrP-11" style="edgeStyle=orthogonalEdgeStyle;rounded=0;orthogonalLoop=1;jettySize=auto;html=1;entryX=0.5;entryY=0;entryDx=0;entryDy=0;" parent="1" source="RtNfpjcmU_7wbHO0GgrP-3" target="RtNfpjcmU_7wbHO0GgrP-4" edge="1">
          <mxGeometry relative="1" as="geometry" />
        </mxCell>
        <mxCell id="RtNfpjcmU_7wbHO0GgrP-3" value="逻辑层" style="rounded=1;whiteSpace=wrap;html=1;" parent="1" vertex="1">
          <mxGeometry x="330" y="420" width="110" height="40" as="geometry" />
        </mxCell>
        <mxCell id="RtNfpjcmU_7wbHO0GgrP-12" style="edgeStyle=orthogonalEdgeStyle;rounded=0;orthogonalLoop=1;jettySize=auto;html=1;entryX=0.5;entryY=0;entryDx=0;entryDy=0;" parent="1" source="RtNfpjcmU_7wbHO0GgrP-4" target="RtNfpjcmU_7wbHO0GgrP-6" edge="1">
          <mxGeometry relative="1" as="geometry" />
        </mxCell>
        <mxCell id="RtNfpjcmU_7wbHO0GgrP-4" value="数据层" style="rounded=1;whiteSpace=wrap;html=1;" parent="1" vertex="1">
          <mxGeometry x="330" y="506" width="110" height="40" as="geometry" />
        </mxCell>
        <mxCell id="RtNfpjcmU_7wbHO0GgrP-5" value="客户端" style="rounded=0;whiteSpace=wrap;html=1;" parent="1" vertex="1">
          <mxGeometry x="345" y="240" width="80" height="40" as="geometry" />
        </mxCell>
        <mxCell id="RtNfpjcmU_7wbHO0GgrP-6" value="数据库" style="rounded=0;whiteSpace=wrap;html=1;" parent="1" vertex="1">
          <mxGeometry x="345" y="591" width="80" height="40" as="geometry" />
        </mxCell>
        <mxCell id="RtNfpjcmU_7wbHO0GgrP-13" style="edgeStyle=orthogonalEdgeStyle;rounded=0;orthogonalLoop=1;jettySize=auto;html=1;entryX=1;entryY=0.5;entryDx=0;entryDy=0;" parent="1" source="RtNfpjcmU_7wbHO0GgrP-7" target="RtNfpjcmU_7wbHO0GgrP-4" edge="1">
          <mxGeometry relative="1" as="geometry" />
        </mxCell>
        <mxCell id="RtNfpjcmU_7wbHO0GgrP-7" value="路由层" style="rounded=1;whiteSpace=wrap;html=1;" parent="1" vertex="1">
          <mxGeometry x="540" y="506" width="110" height="40" as="geometry" />
        </mxCell>
        <mxCell id="RtNfpjcmU_7wbHO0GgrP-8" value="" style="endArrow=classic;startArrow=classic;html=1;rounded=0;entryX=0.5;entryY=1;entryDx=0;entryDy=0;exitX=0.5;exitY=0;exitDx=0;exitDy=0;" parent="1" source="RtNfpjcmU_7wbHO0GgrP-2" target="RtNfpjcmU_7wbHO0GgrP-5" edge="1">
          <mxGeometry width="50" height="50" relative="1" as="geometry">
            <mxPoint x="500" y="350" as="sourcePoint" />
            <mxPoint x="550" y="300" as="targetPoint" />
          </mxGeometry>
        </mxCell>
        <mxCell id="RtNfpjcmU_7wbHO0GgrP-14" value="" style="endArrow=classic;startArrow=classic;html=1;rounded=0;entryX=1;entryY=0.5;entryDx=0;entryDy=0;exitX=0.5;exitY=0;exitDx=0;exitDy=0;" parent="1" source="RtNfpjcmU_7wbHO0GgrP-7" target="RtNfpjcmU_7wbHO0GgrP-2" edge="1">
          <mxGeometry width="50" height="50" relative="1" as="geometry">
            <mxPoint x="520" y="390" as="sourcePoint" />
            <mxPoint x="520" y="340" as="targetPoint" />
          </mxGeometry>
        </mxCell>
        <mxCell id="RtNfpjcmU_7wbHO0GgrP-15" value="" style="endArrow=classic;startArrow=classic;html=1;rounded=0;entryX=1;entryY=0.5;entryDx=0;entryDy=0;exitX=0.5;exitY=0;exitDx=0;exitDy=0;" parent="1" source="RtNfpjcmU_7wbHO0GgrP-7" target="RtNfpjcmU_7wbHO0GgrP-3" edge="1">
          <mxGeometry width="50" height="50" relative="1" as="geometry">
            <mxPoint x="605" y="516" as="sourcePoint" />
            <mxPoint x="450" y="360" as="targetPoint" />
          </mxGeometry>
        </mxCell>
      </root>
    </mxGraphModel>
  </diagram>
</mxfile>
